<?xml version="1.0" standalone="no"?><svg xmlns="http://www.w3.org/2000/svg" viewBox="0 0 1440 320" preserveAspectRatio="none"><path fill="#fff" fill-opacity="1" d="M0,128L8,138.7C16,149,32,171,48,197.3C64,224,80,256,96,245.3C112,235,128,181,144,170.7C160,160,176,192,192,176C208,160,224,96,240,96C256,96,272,160,288,154.7C304,149,320,75,336,64C352,53,368,107,384,117.3C400,128,416,96,432,85.3C448,75,464,85,480,122.7C496,160,512,224,528,224C544,224,560,160,576,165.3C592,171,608,245,624,250.7C640,256,656,192,672,138.7C688,85,704,43,720,48C736,53,752,107,768,128C784,149,800,139,816,144C832,149,848,171,864,170.7C880,171,896,149,912,149.3C928,149,944,171,960,165.3C976,160,992,128,1008,149.3C1024,171,1040,245,1056,266.7C1072,288,1088,256,1104,224C1120,192,1136,160,1152,144C1168,128,1184,128,1200,144C1216,160,1232,192,1248,186.7C1264,181,1280,139,1296,154.7C1312,171,1328,245,1344,256C1360,267,1376,213,1392,170.7C1408,128,1424,96,1432,80L1440,64L1440,320L1432,320C1424,320,1408,320,1392,320C1376,320,1360,320,1344,320C1328,320,1312,320,1296,320C1280,320,1264,320,1248,320C1232,320,1216,320,1200,320C1184,320,1168,320,1152,320C1136,320,1120,320,1104,320C1088,320,1072,320,1056,320C1040,320,1024,320,1008,320C992,320,976,320,960,320C944,320,928,320,912,320C896,320,880,320,864,320C848,320,832,320,816,320C800,320,784,320,768,320C752,320,736,320,720,320C704,320,688,320,672,320C656,320,640,320,624,320C608,320,592,320,576,320C560,320,544,320,528,320C512,320,496,320,480,320C464,320,448,320,432,320C416,320,400,320,384,320C368,320,352,320,336,320C320,320,304,320,288,320C272,320,256,320,240,320C224,320,208,320,192,320C176,320,160,320,144,320C128,320,112,320,96,320C80,320,64,320,48,320C32,320,16,320,8,320L0,320Z"></path></svg>