<svg xmlns="http://www.w3.org/2000/svg" viewBox="0 0 1440 320"><path fill="#ffffff" fill-opacity="1" d="M0,0L75.8,160L151.6,192L227.4,160L303.2,0L378.9,64L454.7,160L530.5,32L606.3,160L682.1,256L757.9,0L833.7,64L909.5,256L985.3,0L1061.1,320L1136.8,64L1212.6,192L1288.4,32L1364.2,320L1440,160L1440,320L1364.2,320L1288.4,320L1212.6,320L1136.8,320L1061.1,320L985.3,320L909.5,320L833.7,320L757.9,320L682.1,320L606.3,320L530.5,320L454.7,320L378.9,320L303.2,320L227.4,320L151.6,320L75.8,320L0,320Z"></path></svg>